<?xml version="1.0" standalone="no"?>
<!DOCTYPE svg PUBLIC "-//W3C//DTD SVG 1.1//EN" "http://www.w3.org/Graphics/SVG/1.1/DTD/svg11.dtd" >
<svg xmlns="http://www.w3.org/2000/svg">
<metadata></metadata>
<defs>
<font id="tall_films_expanded_obliqueRg" horiz-adv-x="641" >
<font-face units-per-em="2048" ascent="1638" descent="-410" />
<missing-glyph horiz-adv-x="495" />
<glyph horiz-adv-x="2048" />
<glyph horiz-adv-x="2048" />
<glyph horiz-adv-x="682" />
<glyph horiz-adv-x="522" d="M383 1403h55l99 -98q35 25 72.5 49t68.5 49h55l-188 -133h-31z" />
<glyph unicode="&#xd;" horiz-adv-x="495" />
<glyph horiz-adv-x="653" d="M100 0l711 1413h39l-707 -1413h-43z" />
<glyph horiz-adv-x="733" d="M102 0l265 1247q8 35 31.5 64.5t57 52t75.5 36t90 13.5q92 0 143 -52t37 -124h-43q12 59 -30 101t-114 42q-35 0 -68.5 -10t-61 -28.5t-47 -43t-25.5 -51.5l-41 -196h483l-223 -1051h-45l215 1018h-439l-215 -1018h-45z" />
<glyph horiz-adv-x="733" d="M102 0l265 1247q8 35 31.5 64.5t57 52t75.5 36t90 13.5q92 0 143 -52t37 -124h-43q12 59 -30 101t-114 42q-35 0 -68.5 -10t-61 -28.5t-47 -43t-25.5 -51.5l-41 -196h438l76 362h45l-299 -1413h-45l215 1018h-439l-215 -1018h-45z" />
<glyph horiz-adv-x="638" d="M100 0l680 1380h-377l7 33h428l-680 -1380h372l-6 -33h-424zM481 1593h56l102 -96q33 23 68.5 47.5t70.5 48.5h56l-191 -131h-31z" />
<glyph horiz-adv-x="638" d="M96 0l602 1018h-372l8 33h432l-604 -1018h368l-6 -33h-428zM428 1251h57l99 -96q35 25 69.5 48.5t69.5 47.5h55l-184 -131h-33z" />
<glyph unicode=" "  horiz-adv-x="495" />
<glyph unicode="&#x09;" horiz-adv-x="495" />
<glyph unicode="&#xa0;" horiz-adv-x="495" />
<glyph unicode="!" horiz-adv-x="243" d="M100 0l25 119h43l-25 -119h-43zM162 293l237 1120h43l-237 -1120h-43z" />
<glyph unicode="&#x22;" horiz-adv-x="378" d="M350 1176l62 290h43l-62 -290h-43zM485 1176l62 290h43l-62 -290h-43z" />
<glyph unicode="#" horiz-adv-x="653" d="M176 188l125 304h-94l6 28h98q14 35 26.5 62.5t24.5 62.5h-94l8 31h97q29 72 59.5 148.5t56.5 148.5h48l-119 -297h137q29 72 58.5 148.5t58.5 148.5h41l-119 -297h100l-12 -31h-98q-12 -35 -26.5 -62.5t-25.5 -62.5h99l-10 -28h-99q-33 -74 -63.5 -153t-61.5 -151h-43 l123 304h-135q-29 -74 -59.5 -153t-61.5 -151h-45zM354 520h133q14 35 26.5 62.5t25.5 62.5h-138q-12 -35 -22 -62.5t-25 -62.5z" />
<glyph unicode="$" d="M162 281l22 108h45l-22 -108q-12 -53 30 -93.5t115 -40.5q37 0 71 10.5t61.5 29t46 43t24.5 51.5l61 297q8 31 -6 56t-41 46q-12 10 -35.5 19.5t-50.5 19.5h2h-4q-2 0 -4 2t-9 3t-11 3v-2q-41 14 -63.5 24.5t-49.5 26.5q-31 23 -45 54.5t-6 72.5l49 230q14 66 79.5 112.5 t151.5 50.5l25 117h43l-25 -117q82 -4 129.5 -51t32.5 -112l-22 -109h-43l22 109q12 55 -30.5 94t-114.5 39q-74 0 -132.5 -39t-70.5 -94l-49 -230q-12 -68 37 -104q16 -12 36.5 -19.5t49.5 -15.5q6 -4 14 -5t17 -5v2q37 -12 60 -22.5t50 -26.5q35 -23 51.5 -56t5.5 -73 l-61 -297q-14 -63 -80.5 -111.5t-152.5 -54.5l-23 -115h-41l23 115q-41 2 -75 16t-55.5 36.5t-30.5 51.5t-1 62z" />
<glyph unicode="%" horiz-adv-x="1024" d="M276 0l697 1380h41l-692 -1380h-46zM322 1028l47 221q6 31 26.5 56.5t49 46t64.5 32t73 11.5q80 0 123 -43t30 -103l-47 -221q-14 -63 -74.5 -105t-140.5 -42q-74 0 -120 42t-31 105zM365 1028q-10 -47 23.5 -81t90.5 -34q61 0 110.5 34t59.5 81l47 221q10 47 -24.5 81 t-96.5 34q-57 0 -105 -34t-58 -81zM582 145l45 220q14 63 75.5 105t139.5 42t121 -42t28 -105l-45 -220q-14 -59 -74.5 -102t-138.5 -43q-39 0 -69.5 11.5t-51 31.5t-29 46t-1.5 56zM623 145q-10 -47 23.5 -80.5t92.5 -33.5q57 0 107.5 33.5t60.5 80.5l45 220 q10 49 -23.5 83.5t-92.5 34.5t-108.5 -34.5t-59.5 -83.5z" />
<glyph unicode="&#x26;" d="M137 166l103 487q10 49 54 89t103 61q-49 23 -76.5 62.5t-17.5 86.5l64 295q8 35 31.5 64.5t57 52t75.5 36t90 13.5q45 0 81.5 -14.5t61 -38t35 -55t2.5 -68.5h-43q12 59 -30 101t-114 42q-74 0 -132 -38.5t-70 -94.5l-64 -295q-10 -55 31 -95t115 -40h174l18 84h43 l-209 -985h-43l31 150q-39 -29 -87 -47.5t-99 -18.5q-92 0 -146.5 47t-38.5 119zM182 166q-12 -55 30 -94t116 -39q72 0 131 39t71 94l132 622h-175q-74 0 -132 -39.5t-70 -95.5z" />
<glyph unicode="'" horiz-adv-x="243" d="M350 1176l62 290h43l-62 -290h-43z" />
<glyph unicode="(" horiz-adv-x="436" d="M121 82q66 315 132 625.5t132 623.5q6 33 30.5 63.5t60.5 52t81 35t94 13.5l-8 -31q-39 0 -76 -10t-66.5 -28.5t-49 -43t-25.5 -51.5l-266 -1249q-10 -53 37 -93t125 -40l-5 -21l-14 -10q-94 0 -146.5 47t-35.5 117z" />
<glyph unicode=")" horiz-adv-x="436" d="M84 -82l6 31q39 0 76 10t66.5 28.5t49 43t25.5 51.5l266 1249q10 53 -37 93t-124 40l8 31q96 0 153.5 -48t42.5 -116l-266 -1249q-16 -70 -92 -117t-174 -47z" />
<glyph unicode="*" horiz-adv-x="561" d="M342 1104v31l147 61q-31 14 -61.5 29.5t-58.5 27.5l12 31l135 -63l39 182h43l-39 -184q39 14 77 30.5t75 30.5l26 -25l-159 -59q33 -16 66.5 -34.5t62.5 -31.5l-33 -22l-125 61l-39 -184h-43l39 184q-41 -16 -85 -33.5t-79 -31.5z" />
<glyph unicode="+" horiz-adv-x="618" d="M203 477l6 31h180l74 346h43l-74 -346h191l-7 -31h-190l-72 -342h-43l72 342h-180z" />
<glyph unicode="," horiz-adv-x="303" d="M68 -111l94 125l22 105h45l-24 -113l-88 -117h-49z" />
<glyph unicode="-" horiz-adv-x="618" d="M203 477l6 31h414l-7 -31h-413z" />
<glyph unicode="." horiz-adv-x="243" d="M100 0l25 119h43l-25 -119h-43z" />
<glyph unicode="/" horiz-adv-x="653" d="M100 0l711 1413h39l-707 -1413h-43z" />
<glyph unicode="0" d="M125 115l252 1181q16 72 83.5 94.5t160.5 22.5q45 0 83.5 -5t65.5 -18.5t39 -36t4 -57.5l-252 -1181q-14 -70 -80.5 -92.5t-158.5 -22.5q-47 0 -86 5t-66 17.5t-39 35t-6 57.5zM170 115q-10 -53 37 -67.5t121 -14.5q72 0 126 14t64 68l252 1181q10 53 -37 68.5t-119 15.5 q-74 0 -128 -15t-64 -69z" />
<glyph unicode="1" horiz-adv-x="417" d="M276 0l285 1348q-45 -47 -91 -95.5t-89 -91.5l-41 2l244 252h30l-299 -1415h-39z" />
<glyph unicode="2" d="M102 0l125 594q18 82 115 129q29 16 57.5 26.5t73.5 22.5l-2 -2q10 4 18.5 5t16.5 5q29 6 54.5 13.5t45.5 21.5q72 43 84 105l70 327q12 55 -31 94t-115 39q-74 0 -132 -38.5t-70 -94.5l-23 -108h-45l23 108q8 35 31.5 64.5t57 52t75.5 36t90 13.5q45 0 81.5 -13.5 t61 -36t36 -52t3.5 -64.5l-70 -327q-10 -41 -36.5 -74t-67.5 -55q-33 -16 -60.5 -25.5t-74.5 -24.5l2 2q-6 -2 -13.5 -3t-11.5 -3q-2 0 -4 -1t-4 -1h2q-31 -10 -58.5 -19t-44.5 -20q-35 -20 -59 -45.5t-31 -56.5l-118 -561h368l-6 -33h-414z" />
<glyph unicode="3" d="M139 176h45q-14 -59 28 -101t116 -42q72 0 131 39t71 94l97 455q10 53 -32 93t-114 40h-98l6 32h98q37 0 71 10.5t61.5 29t46 43t24.5 53.5l70 325q12 55 -31 94t-115 39q-74 0 -133 -42t-71 -101h-45q8 37 31.5 68.5t58 55t76.5 38t90 14.5q45 0 81.5 -13.5t61 -36 t36 -52t3.5 -64.5l-70 -325q-10 -49 -54 -90t-104 -62q53 -20 79 -60t16 -89l-97 -455q-16 -72 -87.5 -119t-163.5 -47t-145.5 50t-37.5 126z" />
<glyph unicode="4" horiz-adv-x="626" d="M197 461l514 954h39l-195 -921h74l-8 -33h-74l-96 -461h-41l96 461h-309zM254 494h260l164 778q-106 -199 -212 -389.5t-212 -388.5z" />
<glyph unicode="5" d="M139 176h45q-14 -59 28 -101t116 -42q72 0 131 39t71 94l117 553q12 55 -31 94t-114 39q-74 0 -133.5 -42t-71.5 -101l-45 4l149 700h422l-6 -33h-377l-118 -561q37 29 85 47.5t101 18.5q45 0 82 -13.5t61.5 -36t35.5 -52t3 -64.5l-117 -553q-16 -72 -87.5 -119 t-163.5 -47t-145.5 50t-37.5 126z" />
<glyph unicode="6" d="M137 166l230 1081q8 35 31.5 64.5t57 52t75.5 36t90 13.5q45 0 81.5 -13.5t61 -36t36 -52t3.5 -64.5l-27 -123h-43l27 123q12 55 -31 94t-115 39q-74 0 -132 -38.5t-70 -94.5l-109 -510q37 29 86 46.5t103 17.5q92 0 144 -47t38 -117l-101 -471q-16 -72 -87.5 -119 t-163.5 -47t-146.5 47t-38.5 119zM182 166q-12 -55 30 -94t116 -39q72 0 131 39t71 94l101 471q10 55 -32 95t-114 40q-37 0 -70.5 -11t-61 -29.5t-46 -43t-24.5 -51.5z" />
<glyph unicode="7" horiz-adv-x="626" d="M180 0l592 1380h-377l6 33h426l-606 -1413h-41z" />
<glyph unicode="8" d="M137 166l96 455q10 49 54.5 89t101.5 60q-49 20 -75.5 61t-16.5 91l70 325q8 35 31.5 64.5t57 52t75.5 36t90 13.5q45 0 81.5 -13.5t61 -36t36 -52t3.5 -64.5l-70 -325q-10 -49 -54 -90t-104 -62q53 -20 79 -60t16 -89l-97 -455q-16 -72 -87.5 -119t-163.5 -47t-146.5 47 t-38.5 119zM182 166q-12 -55 30 -94t116 -39q72 0 131 39t71 94l97 455q10 53 -32 93t-114 40q-37 0 -70.5 -10.5t-61 -29t-46 -43t-24.5 -50.5zM342 922q-12 -57 30 -96.5t115 -39.5q37 0 71 10.5t61.5 29t46 43t24.5 53.5l70 325q12 55 -31 94t-115 39q-74 0 -132 -38.5 t-70 -94.5z" />
<glyph unicode="9" d="M137 166l25 121h45l-25 -121q-12 -55 30 -94t116 -39q72 0 131 39t71 94l109 510q-39 -29 -87 -47.5t-101 -18.5q-47 0 -84 13.5t-61.5 36t-36 52t-3.5 64.5l101 471q8 35 31.5 64.5t57 52t75.5 36t90 13.5q45 0 81.5 -13.5t61 -36t36 -52t3.5 -64.5l-230 -1081 q-16 -72 -87.5 -119t-163.5 -47t-146.5 47t-38.5 119zM311 776q-12 -55 30 -94t116 -39q72 0 131 39t71 94l101 471q12 55 -31 94t-115 39q-74 0 -132 -38.5t-70 -94.5z" />
<glyph unicode=":" horiz-adv-x="243" d="M100 0l25 119h43l-25 -119h-43zM240 659l24 121h43l-24 -121h-43z" />
<glyph unicode=";" horiz-adv-x="303" d="M68 -111l94 125l22 105h45l-24 -113l-88 -117h-49zM299 659l25 121h45l-25 -121h-45z" />
<glyph unicode="&#x3c;" horiz-adv-x="544" d="M203 502l348 246l63 -3l-350 -243q57 -55 126 -124l122 -122h-61z" />
<glyph unicode="=" horiz-adv-x="618" d="M186 403l9 33h413l-8 -33h-414zM221 559l6 33h414l-6 -33h-414z" />
<glyph unicode="&#x3e;" horiz-adv-x="544" d="M139 256l355 246q-59 57 -124 120.5t-124 122.5l61 3l248 -246l-354 -246h-62z" />
<glyph unicode="?" d="M262 0l25 119h41l-25 -119h-41zM324 293l63 299q16 74 66 115q18 16 42.5 28.5t51.5 24.5q27 10 44 21.5t36 23.5q47 41 59 98l74 344q12 55 -31 94t-115 39q-74 0 -132 -38.5t-70 -94.5l-23 -108h-45l23 108q8 35 31.5 64.5t57 52t75.5 36t90 13.5q45 0 81.5 -13.5 t61 -36t36 -52t3.5 -64.5l-74 -344q-16 -74 -74 -117l-51 -32q-4 -2 -19.5 -10.5t-29.5 -16.5q-16 -6 -35.5 -15.5t-36.5 -23.5q-43 -37 -55 -96l-63 -299h-41z" />
<glyph unicode="@" d="M166 299l164 774q6 35 29.5 64.5t58.5 52t77 35t89 12.5q92 0 144 -47t38 -117l-131 -616q-4 -23 -24.5 -38.5t-45.5 -15.5t-39 15.5t-10 38.5l8 43q-18 -12 -48 -24.5t-52 -12.5q-59 0 -92 39t-21 98l45 215q12 59 61.5 98t108.5 39q61 0 88 -34l9 43h45l-107 -504 q-4 -20 12 -21q14 0 19 21l131 616q10 53 -32 93t-113 40q-37 0 -71 -10t-61.5 -28.5t-46 -43t-24.5 -51.5l-164 -774q-12 -55 30 -94t115 -39q72 0 131.5 42t73.5 101h29l12 -10q-16 -70 -89 -118t-165 -48t-145 48t-37 118zM354 600q-10 -43 12.5 -73.5t63.5 -30.5 t74 30.5t43 73.5l45 213q10 45 -10.5 76t-61.5 31t-75.5 -31t-45.5 -76z" />
<glyph unicode="A" horiz-adv-x="522" d="M41 0l498 1413h43l-103 -1413h-43l41 578h-190q-47 -141 -97.5 -289t-101.5 -289h-47zM301 610h182q6 88 11.5 166t10.5 153t10 153.5t11 168.5q-57 -164 -111.5 -319.5t-113.5 -321.5z" />
<glyph unicode="B" horiz-adv-x="622" d="M102 0l299 1413h199q45 0 82 -13.5t62 -35.5q26 -22 38 -52q6 -17 6 -35q0 -14 -4 -30l-79 -377q-10 -49 -54.5 -88t-103.5 -61q49 -23 77 -61q20 -28 20 -63q0 -13 -3 -26l-86 -405q-8 -35 -31.5 -65.5t-58.5 -53t-77 -35t-87 -12.5h-199zM154 33h153q72 0 131.5 39 t71.5 94l86 405q2 11 2 21q0 42 -34 74q-42 40 -113 39h-154zM303 737h154q72 0 131 38t71 95l80 377q3 12 3 23q0 40 -34 71q-42 39 -114 39h-154z" />
<glyph unicode="C" d="M137 166l230 1081q8 35 31.5 64.5t57 52t75.5 36t90 13.5q45 0 81.5 -13.5t61.5 -35.5q24 -22 36 -52q7 -17 7 -37q0 -13 -4 -28l-23 -108h-43l23 108q3 12 3 23q0 40 -34 71q-43 39 -115 39q-74 0 -132 -38.5t-70 -94.5l-230 -1081q-3 -12 -3 -24q0 -40 33 -70 q42 -39 116 -39q72 0 131 39t71 94l23 108h43l-23 -108q-16 -72 -87.5 -119t-163.5 -47t-146 47q-42 36 -43 88q0 15 4 31z" />
<glyph unicode="D" horiz-adv-x="622" d="M102 0l299 1413h199q92 0 146 -49q42 -38 41 -88q0 -14 -3 -29l-229 -1081q-8 -35 -31.5 -64.5t-57.5 -52t-77 -36t-88 -13.5h-199zM154 33h153q76 0 133.5 40t69.5 93l229 1081q2 11 2 21q1 40 -31 72q-40 40 -116 40h-154z" />
<glyph unicode="E" horiz-adv-x="618" d="M102 0l299 1413h414l-6 -33h-369l-137 -643h313l-6 -30h-313l-143 -674h368l-6 -33h-414z" />
<glyph unicode="F" horiz-adv-x="555" d="M102 0l299 1413h414l-6 -33h-369l-139 -655h313l-8 -33h-313l-146 -692h-45z" />
<glyph unicode="G" d="M137 166l230 1081q8 35 31.5 64.5t57 52t75.5 36t90 13.5q45 0 81.5 -13.5t61 -36t36.5 -51.5q6 -18 6 -37q0 -14 -3 -28l-23 -108h-43l23 108q3 12 3 23q0 41 -34 71q-43 39 -115 39q-74 0 -132 -38.5t-70 -94.5l-230 -1081q-3 -12 -3 -24q0 -40 33 -70q42 -39 116 -39 q72 0 131 39t71 94l113 530h-186l6 31h229l-119 -561q-16 -72 -87.5 -119t-163.5 -47t-146 47q-43 36 -43 88q0 15 4 31z" />
<glyph unicode="H" horiz-adv-x="638" d="M102 0l299 1413h45l-143 -676h348l144 676h41l-299 -1413h-41l149 707h-348l-150 -707h-45z" />
<glyph unicode="I" horiz-adv-x="243" d="M100 0l299 1415h43l-299 -1415h-43z" />
<glyph unicode="J" d="M137 166l23 108h45l-23 -108q-3 -12 -3 -24q0 -40 33 -70q42 -39 116 -39q72 0 131 39t71 94l265 1241h43l-265 -1241q-16 -72 -87.5 -119t-163.5 -47t-146 47q-43 36 -43 88q0 15 4 31z" />
<glyph unicode="K" horiz-adv-x="575" d="M102 0l299 1413h45l-141 -665l492 665h47l-545 -737q59 -166 121.5 -338t124.5 -338h-47l-222 610l-129 -610h-45z" />
<glyph unicode="L" horiz-adv-x="618" d="M102 0l299 1413h45l-292 -1380h368l-6 -33h-414z" />
<glyph unicode="M" horiz-adv-x="776" d="M100 -4l301 1417h41l-30 -1288q129 322 260 645.5t260 642.5h39l-301 -1417h-41l252 1184q-121 -299 -239 -591t-236 -589h-37l28 1182l-252 -1186h-45z" />
<glyph unicode="N" horiz-adv-x="638" d="M102 0l299 1413h41l86 -1251l267 1251h41l-299 -1413h-39l-86 1249l-265 -1249h-45z" />
<glyph unicode="O" d="M137 166l230 1081q8 35 31.5 64.5t57 52t75.5 36t90 13.5q45 0 81.5 -13.5t61.5 -35.5q24 -22 36 -52q7 -17 7 -37q0 -13 -4 -28l-230 -1081q-16 -72 -87.5 -119t-163.5 -47t-146 47q-42 36 -43 88q0 15 4 31zM182 166q-3 -12 -3 -24q0 -40 33 -70q42 -39 116 -39 q72 0 131 39t71 94l230 1081q3 12 3 23q0 40 -34 71q-43 39 -115 39q-74 0 -132 -38.5t-70 -94.5z" />
<glyph unicode="P" horiz-adv-x="622" d="M102 0l299 1413h199q45 0 82 -13.5t62 -35.5q26 -22 38 -52q6 -17 6 -35q0 -14 -4 -30l-79 -377q-8 -35 -32 -64.5t-58.5 -52t-76.5 -35.5t-87 -13h-154l-150 -705h-45zM303 737h154q72 0 131 38t71 95l80 377q3 12 3 23q0 40 -34 71q-42 39 -114 39h-154z" />
<glyph unicode="Q" horiz-adv-x="624" d="M137 166l230 1081q8 35 31.5 64.5t57 52t75.5 36t90 13.5q45 0 81.5 -13.5t61 -36t36.5 -51.5q6 -18 6 -37q0 -14 -3 -28l-230 -1081q-8 -35 -30.5 -64.5t-54 -51t-71.5 -35t-83 -15.5q55 -29 114.5 -59.5t114.5 -59.5l-35 -26l-319 172q-39 23 -61 59q-14 24 -14 52 q0 14 3 28zM182 166q-3 -12 -3 -23q0 -41 34 -71q43 -39 115 -39t131 39t71 94l230 1081q3 12 3 23q0 41 -34 71q-43 39 -115 39q-35 0 -68.5 -10t-61 -28.5t-47 -43t-25.5 -51.5z" />
<glyph unicode="R" horiz-adv-x="622" d="M102 0l299 1413h199q45 0 82 -13.5t62 -35.5q26 -22 38 -52q6 -17 6 -35q0 -14 -4 -30l-79 -377q-10 -49 -54.5 -88t-103.5 -61q49 -23 77 -61q20 -28 20 -63q0 -13 -3 -26l-121 -571h-45l121 571q2 11 2 21q0 42 -34 74q-42 40 -113 39h-154l-150 -705h-45zM303 737h154 q72 0 131 38t71 95l80 377q3 12 3 23q0 40 -34 71q-42 39 -114 39h-154z" />
<glyph unicode="S" d="M137 166l23 108h45l-23 -108q-3 -12 -3 -24q0 -40 33 -70q42 -39 116 -39q72 0 131 39t71 94l86 412q8 31 -6 56t-41 46q-12 10 -35.5 19.5t-50.5 19.5h2h-4q-2 0 -4 2t-9 3t-11 3v-2q-41 14 -63.5 24.5t-49.5 26.5q-31 22 -45 54q-9 20 -9 44q0 14 3 29l74 344 q8 35 31.5 64.5t57 52t75.5 36t90 13.5q45 0 81.5 -13.5t61.5 -35.5q24 -22 36 -52q7 -17 7 -37q0 -13 -4 -28l-23 -108h-43l23 108q3 12 3 23q0 40 -34 71q-43 39 -115 39q-74 0 -132 -38.5t-70 -94.5l-74 -344q-2 -13 -2 -26q0 -50 39 -78q16 -12 36.5 -19.5t49.5 -15.5 q6 -4 14 -5t17 -5v2q37 -12 60 -22.5t50 -26.5q36 -23 52 -56q10 -20 9 -42q0 -15 -4 -31l-86 -412q-16 -72 -87.5 -119t-163.5 -47t-146 47q-42 36 -43 88q0 15 4 31z" />
<glyph unicode="T" horiz-adv-x="505" d="M231 0l293 1380h-186l6 33h416l-6 -33h-185l-293 -1380h-45z" />
<glyph unicode="U" d="M137 166l264 1241h45l-264 -1241q-3 -12 -3 -24q0 -40 33 -70q42 -39 116 -39q72 0 131 39t71 94l265 1241h43l-265 -1241q-16 -72 -87.5 -119t-163.5 -47t-146 47q-42 36 -43 88q0 15 4 31z" />
<glyph unicode="V" horiz-adv-x="522" d="M240 0l100 1413h47l-90 -1249q111 311 219.5 624.5t218.5 624.5h45l-497 -1413h-43z" />
<glyph unicode="W" horiz-adv-x="854" d="M227 0l121 1413h45l-106 -1237q104 311 208.5 619.5t209.5 617.5h43l-107 -1241q104 303 212 621.5t210 619.5h41l-477 -1413h-43l104 1235q-106 -307 -209.5 -617.5t-208.5 -617.5h-43z" />
<glyph unicode="X" horiz-adv-x="522" d="M41 0l348 707q-12 170 -24.5 353t-24.5 353h45l43 -631q78 156 156 315.5t155 315.5h41l-348 -706q10 -170 23.5 -353.5t25.5 -353.5h-41l-45 633q-78 -158 -155.5 -316.5t-153.5 -316.5h-45z" />
<glyph unicode="Y" horiz-adv-x="514" d="M238 0l139 662q-10 182 -19.5 376.5t-19.5 374.5h41l37 -665q80 166 157.5 332.5t159.5 332.5h41l-356 -751l-139 -662h-41z" />
<glyph unicode="Z" horiz-adv-x="638" d="M100 0l680 1380h-377l7 33h428l-680 -1380h372l-6 -33h-424z" />
<glyph unicode="[" horiz-adv-x="346" d="M84 -82l336 1577h254l-8 -31h-213l-322 -1515h213l-6 -31h-254z" />
<glyph unicode="\" horiz-adv-x="534" d="M340 1413h41l115 -1413h-45z" />
<glyph unicode="]" horiz-adv-x="346" d="M-14 -82l6 31h211l321 1515h-213l8 31h256l-335 -1577h-254z" />
<glyph unicode="^" horiz-adv-x="413" d="M303 961l184 452h39l-8 -452h-41v315q-35 -78 -68.5 -158t-64.5 -157h-41z" />
<glyph unicode="_" horiz-adv-x="665" d="M-14 -150l6 33h629l-7 -33h-628z" />
<glyph unicode="`" horiz-adv-x="387" d="M383 1403h55l127 -141h-49z" />
<glyph unicode="a" d="M137 164l62 297q8 33 31.5 63.5t58.5 53t77 36t89 13.5q53 0 93 -18.5t66 -49.5l68 324q3 12 3 23q0 39 -34 70q-43 40 -114 40q-74 0 -132.5 -40t-70.5 -93l-23 -109h-45l23 109q6 33 29.5 63.5t58.5 53t77 36t89 13.5q90 1 143 -49q42 -39 42 -90q0 -13 -3 -27 l-188 -885h-43l14 65q-39 -31 -87 -48t-102 -17q-92 0 -145 48q-41 37 -41 87q0 15 4 31zM182 164q-3 -12 -3 -24q0 -40 33 -70q42 -39 116 -39q72 0 131 39t71 94l62 297q3 12 3 23q0 39 -34 70q-43 40 -115 40q-74 0 -132 -40t-70 -93z" />
<glyph unicode="b" d="M102 0l299 1413h45l-90 -430q37 29 86.5 48.5t102.5 19.5q45 0 82 -13.5t61 -35.5q25 -24 35 -54q6 -17 6 -34q0 -14 -4 -29l-152 -719q-16 -72 -87.5 -119t-163.5 -47q-53 0 -95.5 18.5t-66.5 47.5l-13 -66h-45zM182 166q-3 -12 -3 -24q0 -40 33 -70q42 -39 116 -39 q72 0 131 39t71 94l152 719q3 12 3 23q0 39 -34 70q-43 40 -114 40q-74 0 -132.5 -40t-70.5 -93z" />
<glyph unicode="c" d="M137 166l152 719q8 33 31.5 63.5t58.5 53t77 36t89 13.5q45 0 82 -13.5t61 -35.5q25 -24 35 -54q6 -17 6 -34q0 -14 -4 -29l-23 -109h-43l23 109q3 12 3 23q0 39 -34 70q-43 40 -114 40q-74 0 -132.5 -40t-70.5 -93l-152 -719q-3 -12 -3 -24q0 -40 33 -70q42 -39 116 -39 q72 0 131 39t71 94l23 108h43l-23 -108q-16 -72 -87.5 -119t-163.5 -47t-146 47q-42 36 -43 88q0 15 4 31z" />
<glyph unicode="d" d="M137 166l152 719q8 33 31.5 63.5t58.5 53t77 36t89 13.5q51 0 92 -19.5t68 -48.5l90 430h43l-299 -1413h-43l12 66q-39 -31 -86 -48.5t-100 -17.5q-92 0 -146 47q-42 36 -43 88q0 15 4 31zM182 166q-3 -12 -3 -24q0 -40 33 -70q42 -39 116 -39q72 0 131 39t71 94l152 719 q3 12 3 23q0 39 -34 70q-43 40 -114 40q-74 0 -132.5 -40t-70.5 -93z" />
<glyph unicode="e" d="M137 166l152 719q8 33 31.5 63.5t58.5 53t77 36t89 13.5q45 0 82 -13.5t61 -35.5q25 -24 35 -54q6 -17 6 -34q0 -14 -4 -29l-68 -324h-391l-84 -395q-3 -12 -3 -24q0 -40 33 -70q42 -39 116 -39q72 0 131 39t71 94l23 108h43l-23 -108q-16 -72 -87.5 -119t-163.5 -47 t-146 47q-42 36 -43 88q0 15 4 31zM272 592h349l61 293q3 12 3 23q0 39 -34 70q-43 40 -114 40q-74 0 -132.5 -40t-70.5 -93z" />
<glyph unicode="f" horiz-adv-x="530" d="M102 0l265 1247q8 35 31.5 64.5t57 52t75.5 36t90 13.5q45 0 81.5 -14.5t61 -38t34.5 -54.5q6 -18 6 -38q0 -15 -3 -31h-43q3 13 3 25q0 43 -33 76q-42 42 -114 42q-74 0 -132 -38.5t-70 -94.5l-41 -196h311l-8 -33h-312l-215 -1018h-45z" />
<glyph unicode="g" d="M61 -188h45q-3 -13 -3 -26q0 -43 32 -76q41 -42 115 -42q37 0 70.5 10.5t61.5 29t46 43t25 50.5l55 265q-39 -29 -87 -47.5t-99 -18.5q-92 0 -146 47q-43 36 -43 88q0 15 4 31l152 719q8 33 31.5 63.5t58.5 53t77 36t89 13.5q51 0 92 -19.5t68 -48.5l14 68h43l-266 -1250 q-6 -35 -30 -64.5t-57.5 -51t-76.5 -34.5t-88 -13q-92 0 -146 51q-41 39 -41 91q0 15 4 32zM182 166q-3 -12 -3 -24q0 -40 33 -70q42 -39 116 -39q72 0 131 39t71 94l152 719q3 12 3 23q0 39 -34 70q-43 40 -114 40q-74 0 -132.5 -40t-70.5 -93z" />
<glyph unicode="h" d="M102 0l299 1413h45l-90 -430q37 29 86.5 48.5t102.5 19.5q45 0 82 -13.5t61 -35.5q25 -24 35 -54q6 -17 6 -34q0 -14 -4 -29l-186 -885h-43l186 885q3 12 3 23q0 39 -34 70q-43 40 -114 40q-74 0 -132.5 -40t-70.5 -93l-187 -885h-45z" />
<glyph unicode="i" horiz-adv-x="243" d="M100 0l224 1051h43l-224 -1051h-43zM346 1157l35 166h43l-35 -166h-43z" />
<glyph unicode="j" horiz-adv-x="258" d="M-154 -358l7 30q39 0 75.5 10.5t66.5 29t50.5 43t26.5 52.5l264 1244h39l-264 -1244q-8 -35 -32 -64.5t-59.5 -52t-79.5 -35.5t-94 -13zM358 1157l35 166h39l-35 -166h-39z" />
<glyph unicode="k" horiz-adv-x="575" d="M102 0l299 1409h45l-176 -827q111 117 227.5 235.5t229.5 233.5h41l-504 -521q68 -129 139.5 -265t141.5 -265h-41l-256 479l-101 -479h-45z" />
<glyph unicode="l" horiz-adv-x="243" d="M100 0l299 1413h43l-299 -1413h-43z" />
<glyph unicode="m" horiz-adv-x="1042" d="M104 0l224 1051h45l-15 -68q37 29 86.5 48.5t102.5 19.5q66 0 110.5 -28t65.5 -69q35 43 94.5 70t124.5 27q45 0 82 -13.5t62 -35.5q24 -24 36 -54q6 -17 6 -35q0 -14 -4 -28l-186 -885h-45l186 885q3 12 3 23q0 39 -34 70q-42 40 -114 40q-76 0 -134.5 -40t-70.5 -93 l-186 -885h-45l186 885q3 12 3 23q0 39 -34 70q-43 40 -114 40q-35 0 -69 -10.5t-61.5 -28.5t-47 -43t-25.5 -51l-186 -885h-46z" />
<glyph unicode="n" d="M102 0l224 1051h45l-15 -68q37 29 86.5 48.5t102.5 19.5q45 0 82 -13.5t61 -35.5q25 -24 35 -54q6 -17 6 -34q0 -14 -4 -29l-186 -885h-43l186 885q3 12 3 23q0 39 -34 70q-43 40 -114 40q-74 0 -132.5 -40t-70.5 -93l-187 -885h-45z" />
<glyph unicode="o" d="M137 166l152 719q8 33 31.5 63.5t58.5 53t77 36t89 13.5q45 0 82 -13.5t61 -35.5q25 -24 35 -54q6 -17 6 -34q0 -14 -4 -29l-152 -719q-16 -72 -87.5 -119t-163.5 -47t-146 47q-42 36 -43 88q0 15 4 31zM182 166q-3 -12 -3 -24q0 -40 33 -70q42 -39 116 -39q72 0 131 39 t71 94l152 719q3 12 3 23q0 39 -34 70q-43 40 -114 40q-74 0 -132.5 -40t-70.5 -93z" />
<glyph unicode="p" d="M25 -362l301 1413h45l-15 -68q37 29 86.5 48.5t102.5 19.5q45 0 82 -13.5t61.5 -36t34.5 -53.5q6 -16 6 -34q0 -14 -4 -29l-152 -719q-16 -72 -87.5 -119t-163.5 -47q-53 0 -95.5 18.5t-66.5 47.5l-90 -428h-45zM182 166q-3 -12 -3 -24q0 -40 33 -70q42 -39 116 -39 q72 0 131 39t71 94l152 719q3 12 3 23q0 39 -34 70q-43 40 -114 40q-74 0 -132.5 -40t-70.5 -93z" />
<glyph unicode="q" d="M137 166l152 719q8 33 31.5 63.5t58.5 53t77 36t89 13.5q51 0 92 -19.5t68 -48.5l14 68h43l-301 -1413h-43l90 428q-39 -31 -86 -48.5t-100 -17.5q-92 0 -146 47q-43 36 -43 88q0 15 4 31zM182 166q-3 -12 -3 -24q0 -40 33 -70q42 -39 116 -39q72 0 131 39t71 94l152 719 q3 12 3 23q0 39 -34 70q-43 40 -114 40q-74 0 -132.5 -40t-70.5 -93z" />
<glyph unicode="r" horiz-adv-x="563" d="M102 0l224 1051h45l-15 -68q37 29 86.5 48.5t102.5 19.5q45 0 82 -14.5t60.5 -39t33.5 -56.5q6 -18 6 -36q0 -15 -4 -31h-43q3 13 3 25q0 43 -33 77q-42 42 -113 42q-74 0 -132.5 -40t-70.5 -93l-187 -885h-45z" />
<glyph unicode="s" d="M137 164l23 108h45l-23 -108q-3 -12 -3 -24q0 -40 33 -70q42 -39 116 -39q72 0 131 39t71 94l45 217q6 31 -7 57.5t-40 46.5q-14 10 -37.5 18.5t-48.5 18.5h2h-4q-2 0 -4 2q-4 2 -10 3t-10 3l-2 -2q-41 14 -63.5 24.5t-47.5 27.5q-31 22 -46 54q-9 19 -9 42q0 15 4 31 l37 178q8 33 31.5 63.5t58.5 53t77 36t89 13.5q45 0 82 -13.5t61 -35.5q25 -24 35 -54q6 -17 6 -34q0 -14 -4 -29l-23 -109h-43l23 109q3 12 3 23q0 39 -34 70q-43 40 -114 40q-74 0 -132.5 -40t-70.5 -93l-37 -178q-3 -14 -3 -26q0 -46 40 -77q20 -12 44.5 -22.5 t53.5 -20.5q4 -2 13.5 -5t13.5 -5q-4 2 12 -2q27 -10 46.5 -18.5t41.5 -22.5q35 -22 53 -54q11 -19 10 -43q0 -14 -4 -30l-45 -217q-16 -70 -88.5 -118t-165.5 -48q-92 0 -145 48q-41 37 -41 87q0 15 4 31z" />
<glyph unicode="t" horiz-adv-x="417" d="M193 166l180 852h-121l8 33h121l53 256h45l-53 -256h184l-8 -33h-184l-180 -852q-3 -11 -3 -22q1 -41 37 -72q46 -39 123 -39l-4 -23l-14 -10q-45 0 -82 12.5t-63 35.5q-24 22 -36 52q-6 17 -7 36q0 15 4 30z" />
<glyph unicode="u" d="M137 166l189 885h45l-189 -885q-3 -12 -3 -24q0 -40 33 -70q42 -39 116 -39q72 0 131 39t71 94l189 885h43l-189 -885q-16 -72 -87.5 -119t-163.5 -47t-146 47q-42 36 -43 88q0 15 4 31z" />
<glyph unicode="v" horiz-adv-x="522" d="M244 0l20 1051h45l-22 -926q98 233 188 462.5t189 463.5h41l-422 -1051h-39z" />
<glyph unicode="w" horiz-adv-x="894" d="M236 0l34 1051h41l-30 -918q94 229 187 458.5t187 459.5h35l-18 -918q92 229 182 458.5t180 459.5h37l-407 -1051h-37l16 924q-94 -231 -187.5 -463t-185.5 -461h-34z" />
<glyph unicode="x" horiz-adv-x="524" d="M41 0l313 524q-23 125 -46 263.5t-44 263.5h47l74 -467q70 115 141.5 233.5t139.5 233.5h45l-316 -527q23 -125 46.5 -262t45.5 -262h-45l-82 465q-68 -117 -137 -233.5t-135 -231.5h-47z" />
<glyph unicode="y" d="M61 -188h45q-3 -13 -3 -26q0 -43 32 -76q41 -42 115 -42q37 0 70.5 10.5t61.5 29t46 43t25 50.5l55 265q-39 -29 -87 -47.5t-99 -18.5q-92 0 -146 47q-43 36 -43 88q0 15 4 31l189 885h45l-189 -885q-3 -12 -3 -24q0 -40 33 -70q42 -39 116 -39q72 0 131 39t71 94 l189 885h43l-266 -1250q-6 -35 -30 -64.5t-57.5 -51t-76.5 -34.5t-88 -13q-92 0 -146 51q-41 39 -41 91q0 15 4 32z" />
<glyph unicode="z" horiz-adv-x="638" d="M96 0l602 1018h-372l8 33h432l-604 -1018h368l-6 -33h-428z" />
<glyph unicode="{" horiz-adv-x="514" d="M250 694l6 33q39 0 76 10.5t66.5 28.5t50 43t26.5 51q25 117 48.5 234.5t47.5 234.5q8 33 33 63.5t61.5 53t82 36t94.5 13.5l-8 -33q-39 0 -75 -10t-65.5 -28.5t-49 -43t-26.5 -51.5l-98 -469q-10 -49 -54 -88t-104 -61q49 -23 77 -62t18 -88l-101 -471q-12 -53 34 -93 t124 -40l-4 -23l-14 -8q-47 0 -84 13.5t-61.5 35t-36 51t-3.5 64.5q25 117 49.5 235.5t49.5 235.5q10 55 -36 94t-124 39z" />
<glyph unicode="|" horiz-adv-x="243" d="M82 -82l336 1577h43l-336 -1577h-43z" />
<glyph unicode="}" horiz-adv-x="499" d="M-25 -74l7 31q39 0 74.5 10t64.5 28.5t48 43t26 51.5l100 471q10 49 51 89t103 61q-49 20 -75 60t-16 89l99 469q12 53 -34 93t-124 40l8 33q47 0 87 -13.5t66.5 -36t38 -53t3.5 -63.5q-25 -117 -48.5 -234.5t-47.5 -234.5q-12 -53 34.5 -93t124.5 -40l-6 -33 q-39 0 -76 -10t-66.5 -28.5t-50 -43t-26.5 -51.5l-100 -469l2 -2q-6 -35 -31 -64.5t-61.5 -51t-81.5 -35t-93 -13.5z" />
<glyph unicode="~" horiz-adv-x="811" d="M330 1083q41 33 90 49.5t94 16.5q78 0 137 -43q23 -16 52.5 -23.5t60.5 -7.5q35 0 77 11.5t79 39.5l24 -20q-41 -33 -93 -49.5t-97 -16.5q-79 0 -136 39q-47 35 -112 35q-35 0 -77 -13.5t-77 -37.5z" />
<glyph unicode="&#xa1;" horiz-adv-x="243" d="M82 -82l237 1118h43l-237 -1118h-43zM356 1212l27 119h43l-27 -119h-43z" />
<glyph unicode="&#xa2;" d="M137 166l125 590q14 66 80 112.5t152 53.5l24 114h43l-24 -114q82 -6 129 -53.5t32 -112.5l-24 -111h-43l24 111q10 53 -31.5 93t-113.5 40q-37 0 -70.5 -10.5t-61.5 -29t-46.5 -43t-24.5 -50.5l-125 -590q-12 -55 30 -94t116 -39q72 0 131 39t71 94l23 108h43l-23 -108 q-14 -66 -80.5 -113t-150.5 -53l-25 -115h-43l25 115q-84 6 -130 53t-32 113z" />
<glyph unicode="&#xa3;" d="M102 0l265 1247q8 35 31.5 64.5t57 52t75.5 36t90 13.5q45 0 81.5 -13.5t61 -36t36 -52t3.5 -64.5l-23 -108h-43l23 108q12 55 -31 94t-115 39q-74 0 -132 -38.5t-70 -94.5l-97 -452h306l-7 -31h-305l-155 -731h368l-6 -33h-414z" />
<glyph unicode="&#xa4;" horiz-adv-x="874" d="M205 479l10 47l111 74q-27 68 -9 150q10 41 27.5 78.5t44.5 68.5q-43 33 -80 68l10 49l99 -86q51 49 110.5 75.5t124.5 26.5q66 0 114 -25.5t77 -72.5l141 90l-12 -49l-111 -72q31 -70 12 -151q-14 -82 -79 -154l82 -76l-9 -47l-102 90q-100 -90 -229 -90 q-66 0 -114 24.5t-75 71.5zM364 653.5q9 -45.5 33.5 -79t61.5 -53t84 -19.5t94 19.5t85 53t66.5 79t38.5 96.5q12 51 3 96t-33.5 78.5t-63.5 53t-86 19.5t-92 -19.5t-84 -53t-66.5 -78.5t-39.5 -96q-10 -51 -1 -96.5z" />
<glyph unicode="&#xa5;" horiz-adv-x="530" d="M147 403l9 33h180l26 123h-180l6 33h181l14 70q-10 182 -19.5 376.5t-17.5 374.5h41l37 -665q80 166 157.5 332.5t159.5 332.5h41l-356 -751l-14 -70h192l-6 -33h-192l-27 -123h192l-8 -33h-192l-84 -403h-43l84 403h-181z" />
<glyph unicode="&#xa6;" horiz-adv-x="243" d="M68 -150l141 670h43l-141 -670h-43zM254 725l141 670h43l-141 -670h-43z" />
<glyph unicode="&#xa7;" horiz-adv-x="649" d="M125 84l25 111h43l-25 -111q-10 -53 32 -93t113 -40q37 0 72 10t63.5 28.5t47 43t24.5 51.5l35 164q16 66 -53 110q-8 8 -25.5 14.5t-40.5 12.5q-4 2 -12 5t-25 7q-35 12 -60.5 22.5t-47.5 26.5q-35 23 -52.5 56t-9.5 71l9 39q20 84 122 133q-4 4 -12 8.5t-10 8.5h4 q-31 23 -46 54.5t-5 72.5l35 164q6 35 29.5 64.5t58.5 52t76.5 36t89.5 13.5q92 0 144 -48.5t38 -117.5l-25 -111h-43l25 111q10 55 -32 94t-114 39q-35 0 -69.5 -10.5t-62 -29t-46 -43t-24.5 -50.5l-35 -164q-16 -68 37 -103q29 -23 84 -38h2q4 -2 28 -11v2 q41 -12 64.5 -22t46.5 -27q74 -49 59 -127l-8 -39q-10 -41 -40.5 -76.5t-82.5 -58.5q10 -4 13.5 -7t9.5 -7h-4q33 -23 48 -55.5t5 -71.5l-35 -164q-6 -35 -29.5 -64.5t-58.5 -52t-79 -35t-89 -12.5q-90 0 -143 47t-39 117zM272 573q-12 -63 50 -100q39 -29 98 -43 q8 -4 26.5 -10t36.5 -14q45 16 79 46.5t44 71.5l8 39q6 31 -7 56.5t-42 44.5q-16 12 -41.5 23t-52.5 20q-16 4 -25.5 5t-46.5 17q-45 -16 -77.5 -48t-40.5 -69zM393 731v2q-2 -2 0 -2zM487 406q0 -4 9 -5l-4 5h-3h-2z" />
<glyph unicode="&#xa8;" horiz-adv-x="368" d="M381 1327l20 90h43l-20 -90h-43zM504 1327l20 90h45l-20 -90h-45z" />
<glyph unicode="&#xa9;" horiz-adv-x="569" d="M289 881l78 368q6 31 25.5 56.5t49 46t65.5 32t73 11.5q78 0 120.5 -43t30.5 -103l-78 -368q-14 -63 -74.5 -105.5t-138.5 -42.5q-76 0 -121 42t-30 106zM330 881q-10 -49 23.5 -83t92.5 -34t108.5 33.5t59.5 83.5l78 368q10 47 -24.5 81t-94.5 34q-59 0 -107 -34 t-58 -81zM354 895l76 354q8 37 46 62.5t91 25.5q49 0 78 -25.5t21 -62.5l-13 -63h-39l13 63q4 23 -15.5 40.5t-50.5 17.5q-35 0 -61.5 -17.5t-30.5 -40.5l-76 -354q-4 -25 14.5 -42t53.5 -17q31 0 58.5 17t31.5 42l14 59h39l-14 -59q-8 -37 -47 -63.5t-88 -26.5 q-53 0 -81 26.5t-20 63.5z" />
<glyph unicode="&#xaa;" d="M268 788l99 455q6 35 29.5 65.5t58 53t76.5 35t90 12.5q51 0 92 -18.5t67 -47.5l11 48h43l-164 -766h-43l14 63q-80 -63 -188 -63q-92 0 -145.5 47t-39.5 116zM313 788q-10 -55 32 -94t116 -39q72 0 131 39t70 94l98 455q10 55 -33 94t-115 39q-74 0 -132 -39t-68 -94z " />
<glyph unicode="&#xab;" horiz-adv-x="610" d="M195 434l217 248l57 -2l-225 -246q29 -57 62.5 -121.5t62.5 -122.5h-54zM379 434l223 248l55 -2l-225 -246q29 -57 61.5 -121.5t61.5 -122.5h-51z" />
<glyph unicode="&#xac;" horiz-adv-x="653" d="M203 477l6 31h444l-35 -164h-40l28 133h-403z" />
<glyph unicode="&#xad;" horiz-adv-x="653" d="M203 477l6 31h444l-6 -31h-444z" />
<glyph unicode="&#xae;" horiz-adv-x="569" d="M289 881l78 368q6 31 25.5 56.5t49 46t65.5 32t73 11.5q78 0 120.5 -43t30.5 -103l-78 -368q-14 -63 -74.5 -105.5t-138.5 -42.5q-76 0 -121 42t-30 106zM330 881q-10 -49 20 -80l111 526q-43 -31 -53 -78zM352 797q28 -33 94 -33q63 0 107 33h-16l43 200 q4 23 -15.5 41.5t-50.5 18.5h-70l-55 -260h-37zM451 1085h69q31 0 58.5 17.5t31.5 42.5l23 100q4 25 -15.5 41.5t-50.5 16.5h-69zM471 1335h102q51 0 80 -26.5t21 -63.5l-23 -100q-10 -53 -65 -74q16 -12 27.5 -31.5t7.5 -42.5l-37 -176q10 14 18 28.5t12 31.5l78 368 q10 47 -25 81t-94 34q-57 0 -102 -29z" />
<glyph unicode="&#xaf;" horiz-adv-x="514" d="M383 1321l6 31h309l-6 -31h-309z" />
<glyph unicode="&#xb0;" d="M362 1233q8 35 32 65.5t58.5 53t76.5 36t89 13.5q90 0 142.5 -49t38.5 -119q-6 -35 -30 -64.5t-57.5 -51t-76.5 -35t-88 -13.5q-92 0 -145.5 48t-39.5 116zM408 1233q-10 -53 31.5 -93t115.5 -40q37 0 70.5 10t60.5 28.5t45.5 43t24.5 51.5q12 57 -31 96t-115 39 q-74 0 -132 -39t-70 -96z" />
<glyph unicode="&#xb1;" horiz-adv-x="618" d="M106 27l9 32h413l-8 -32h-414zM203 477l6 31h184l74 346h45l-74 -346h185l-7 -31h-184l-72 -342h-45l72 342h-184z" />
<glyph unicode="&#xb2;" d="M225 584l56 258q8 41 37.5 72.5t74.5 54.5q29 16 57.5 26.5t73.5 22.5v-2q29 10 31 11t2 -1q31 10 57.5 18.5t44.5 20.5q68 35 84 102l13 64q12 55 -31 94t-115 39q-74 0 -132 -39t-70 -94l-9 -43h-45l8 43q8 35 32 64.5t57.5 52t75.5 35t89 12.5q45 0 82 -12.5t61.5 -35 t36 -52t3.5 -64.5l-13 -64q-10 -41 -37.5 -72.5t-68.5 -54.5q-31 -16 -58.5 -26t-74.5 -25v2l-17 -6q-31 -10 -62.5 -21.5t-53.5 -21.5q-35 -18 -58.5 -44t-29.5 -56l-50 -232h369l-8 -32z" />
<glyph unicode="&#xb3;" d="M262 754h45q-14 -59 28 -101.5t116 -42.5q72 0 131 39t71 94l33 158q10 53 -32 93t-113 40h-99l7 33h98q37 0 70.5 10t61.5 28.5t46 43.5t25 53l6 29q12 55 -31 94t-115 39q-74 0 -133 -42t-71 -101h-46q8 37 32 68.5t58.5 55t76.5 37t89 13.5q45 0 82 -12.5t61.5 -35 t36 -52t3.5 -64.5l-6 -29q-10 -49 -53.5 -90t-102.5 -61q51 -23 76.5 -63t15.5 -87l-33 -158q-16 -72 -89 -118.5t-165 -46.5t-144 50t-36 126z" />
<glyph unicode="&#xb4;" horiz-adv-x="387" d="M354 1262l189 141h55l-195 -141h-49z" />
<glyph unicode="&#xb5;" horiz-adv-x="661" d="M43 -274l283 1325h45l-189 -885q-12 -55 31 -94t115 -39t131 39t71 94l189 885h43l-189 -885q-6 -27 -19 -50.5t-40 -45.5l-4 -4l-8 -7v2q-10 -10 -24.5 -20t-24.5 -21q-12 -10 -21.5 -21t-11.5 -22q-6 -29 29.5 -36t97.5 6l-4 -23l-15 -10q-80 -14 -119.5 1t-29.5 62 q2 14 14 31q-31 -8 -71 -8q-53 0 -95.5 18.5t-66.5 47.5l-72 -340h-45z" />
<glyph unicode="&#xb6;" horiz-adv-x="704" d="M311 987l56 260q8 35 31.5 64.5t57 52t75.5 36t90 13.5h350l-6 -33h-80l-318 -1495h-45l318 1495h-95l-317 -1495h-41l199 934h-90q-47 0 -84 13.5t-61.5 36t-36 53t-3.5 65.5z" />
<glyph unicode="&#xb7;" horiz-adv-x="243" d="M248 702l26 119h43l-26 -119h-43z" />
<glyph unicode="&#xb8;" horiz-adv-x="370" d="M59 -186l7 30q53 0 96 23.5t51 56.5q6 29 -23.5 52.5t-78.5 27.5l6 31q70 -4 108.5 -35t28.5 -76q-10 -47 -66.5 -78.5t-128.5 -31.5z" />
<glyph unicode="&#xb9;" horiz-adv-x="417" d="M338 1147l244 252h30l-176 -821h-39l162 753q-47 -47 -93 -94t-89 -92z" />
<glyph unicode="&#xba;" d="M297 924l70 321q6 35 29.5 64.5t58 52t76.5 36t90 13.5q92 0 144 -48t38 -118l-70 -321q-14 -72 -87 -119t-165 -47t-145 47t-39 119zM342 924q-10 -55 31 -95.5t114 -40.5q37 0 71 10.5t61.5 29t46 43t24.5 53.5l70 321q10 55 -32 94t-114 39q-74 0 -133 -39t-69 -94z " />
<glyph unicode="&#xbb;" horiz-adv-x="610" d="M133 190l229 244l-122 246l53 2l121 -248l-228 -244h-53zM317 190l234 244q-29 59 -62.5 123t-62.5 123l55 2l119 -248l-229 -244h-54z" />
<glyph unicode="&#xbc;" horiz-adv-x="1112" d="M313 0l711 1413h41l-709 -1413h-43zM340 1147l244 252h34l-176 -821h-43l162 753q-43 -47 -90 -94t-88 -92zM612 164l453 657h41l-133 -624h74l-7 -33h-73l-35 -164h-45l35 164h-310zM680 197h248l110 522q-92 -135 -179 -261t-179 -261z" />
<glyph unicode="&#xbd;" horiz-adv-x="1224" d="M315 0l709 1413h41l-709 -1413h-41zM344 1147l244 252h30l-176 -821h-39l162 753l-94 -94t-88 -92zM682 6l55 258q8 41 37 73t74 54q29 16 60.5 27.5t70.5 21.5q12 4 23.5 6.5t21.5 6.5q27 6 48.5 13t43.5 21q68 35 84 103l12 63q12 55 -31.5 95t-115.5 40 q-74 0 -134.5 -39.5t-72.5 -95.5l-8 -43h-39l8 43q8 35 30.5 65t56.5 52.5t76 34.5t89 12q45 0 82 -12t61.5 -34.5t36 -52.5t2.5 -65l-12 -63q-18 -80 -100 -127q-29 -14 -50.5 -22.5t-56.5 -18.5q-8 -2 -21.5 -6t-25.5 -7t-18 -5.5t-2 -0.5q-23 -4 -49.5 -15t-49.5 -21 q-35 -18 -60.5 -45t-31.5 -58l-49 -231h375l-6 -33z" />
<glyph unicode="&#xbe;" horiz-adv-x="1249" d="M268 754h41q-14 -59 30 -101.5t116 -42.5q35 0 68.5 10.5t61 29t47 42t25.5 51.5l33 158q10 53 -32 93t-113 40h-99l7 33h98q72 0 131 39t72 96l6 29q12 55 -31 94t-115 39q-37 0 -70.5 -11.5t-62 -30.5t-48 -45t-25.5 -56h-41q8 37 31.5 68.5t57 55t75.5 37t90 13.5 q92 0 145 -47.5t37 -116.5l-6 -29q-10 -49 -53.5 -90t-102.5 -61q51 -23 76.5 -63t15.5 -87l-33 -158q-8 -35 -31.5 -65.5t-57 -53t-77 -34.5t-88.5 -12q-92 0 -143 50t-35 126zM451 0l710 1413h41l-706 -1413h-45zM752 164l450 657h41l-133 -624h74l-6 -33h-74l-35 -164 h-43l35 164h-309zM809 197h258l111 520q-92 -127 -184.5 -259t-184.5 -261z" />
<glyph unicode="&#xbf;" d="M119 82l74 346q14 72 73 115q23 16 38 25.5t40 21.5h-4q4 4 9 5t9 5q23 6 43.5 17.5t36.5 25.5q25 16 37 40t19 56l63 297h41l-63 -297q-8 -39 -22.5 -67.5t-43.5 -48.5q-16 -12 -33.5 -21.5t-34.5 -17.5q-4 -2 -14 -6.5t-14 -6.5h2q-23 -12 -41.5 -23t-38.5 -26 q-27 -20 -39 -41.5t-18 -52.5l-74 -346q-10 -53 31 -93t114 -40q37 0 71 10t61.5 28.5t46 43t24.5 51.5l23 111h43l-23 -111q-16 -70 -88 -117t-164 -47q-47 0 -84 12.5t-61.5 35t-35.5 52t-3 64.5zM594 1212l27 119h41l-27 -119h-41z" />
<glyph unicode="&#xc0;" horiz-adv-x="522" d="M41 0l498 1413h43l-103 -1413h-43l41 578h-190q-47 -141 -97.5 -289t-101.5 -289h-47zM301 610h182q6 88 11.5 166t10.5 153t10 153.5t11 168.5q-57 -164 -111.5 -319.5t-113.5 -321.5zM494 1593h55l129 -139h-53z" />
<glyph unicode="&#xc1;" horiz-adv-x="522" d="M41 0l498 1413h43l-103 -1413h-43l41 578h-190q-47 -141 -97.5 -289t-101.5 -289h-47zM301 610h182q6 88 11.5 166t10.5 153t10 153.5t11 168.5q-57 -164 -111.5 -319.5t-113.5 -321.5zM459 1454l192 139h56l-195 -139h-53z" />
<glyph unicode="&#xc2;" horiz-adv-x="522" d="M41 0l498 1413h43l-103 -1413h-43l41 578h-190q-47 -141 -97.5 -289t-101.5 -289h-47zM301 610h182q6 88 11.5 166t10.5 153t10 153.5t11 168.5q-57 -164 -111.5 -319.5t-113.5 -321.5zM395 1462l189 131h32l129 -131h-55l-98 99l-139 -99h-58z" />
<glyph unicode="&#xc3;" horiz-adv-x="522" d="M39 0l496 1413h40l-102 -1413h-41l43 578h-190q-51 -141 -101.5 -289t-101.5 -289h-43zM297 610h180q6 90 11.5 166t10.5 149.5t11 149.5t12 168q-57 -160 -113.5 -316.5t-111.5 -316.5zM346 1518q35 23 76 36t76 13q31 0 59.5 -7.5t50.5 -23.5q33 -25 82 -25 q55 0 121 41l18 -16l-4 -14q-63 -41 -141 -41q-59 0 -111 28q-16 10 -39.5 16.5t-44.5 6.5q-23 0 -52 -9.5t-58 -27.5z" />
<glyph unicode="&#xc4;" horiz-adv-x="522" d="M41 0l498 1413h43l-103 -1413h-43l41 578h-190q-47 -141 -97.5 -289t-101.5 -289h-47zM301 610h182q6 88 11.5 166t10.5 153t10 153.5t11 168.5q-57 -164 -111.5 -319.5t-113.5 -321.5zM489 1483l21 92h45l-20 -92h-46zM614 1483l21 92h45l-21 -92h-45z" />
<glyph unicode="&#xc5;" horiz-adv-x="522" d="M41 0l498 1413h43l-103 -1413h-43l41 578h-190q-47 -141 -97.5 -289t-101.5 -289h-47zM301 610h182q6 88 11.5 166t10.5 153t10 153.5t11 168.5q-57 -164 -111.5 -319.5t-113.5 -321.5zM436 1526q10 47 59.5 79.5t112.5 32.5q61 0 96 -32.5t25 -79.5q-10 -45 -58 -77 t-110 -32q-63 0 -99 32t-26 77zM481 1526q-6 -31 19.5 -53.5t66.5 -22.5t75 22.5t40 53.5q6 33 -17.5 56.5t-64.5 23.5t-77 -23.5t-42 -56.5z" />
<glyph unicode="&#xc6;" horiz-adv-x="901" d="M47 0l739 1413h365l-6 -33h-324l-137 -643h268l-6 -30h-268l-143 -674h323l-6 -33h-369l150 707h-170q-94 -174 -186.5 -353.5t-184.5 -353.5h-45zM477 737h162l113 527z" />
<glyph unicode="&#xc7;" d="M137 166l230 1081q8 35 31.5 64.5t57 52t75.5 36t90 13.5q45 0 81.5 -13.5t61 -36t36 -52t3.5 -64.5l-23 -108h-43l23 108q12 55 -31 94t-115 39q-74 0 -132 -38.5t-70 -94.5l-230 -1081q-12 -55 30 -94t116 -39q72 0 131 39t71 94l23 108h43l-23 -108 q-12 -59 -65 -103.5t-127 -56.5q20 -16 29.5 -37.5t5.5 -44.5q-10 -47 -66.5 -78.5t-128.5 -31.5l6 30q53 0 97.5 23.5t52.5 56.5q4 25 -16.5 46.5t-51.5 29.5q-43 2 -77.5 15.5t-58 36t-34 51t-2.5 63.5z" />
<glyph unicode="&#xc8;" horiz-adv-x="618" d="M102 0l299 1413h414l-6 -33h-369l-137 -643h313l-6 -30h-313l-143 -674h368l-6 -33h-414zM541 1593h57l127 -139h-53z" />
<glyph unicode="&#xc9;" horiz-adv-x="618" d="M102 0l299 1413h414l-6 -33h-369l-137 -643h313l-6 -30h-313l-143 -674h368l-6 -33h-414zM510 1454l190 139h56l-191 -139h-55z" />
<glyph unicode="&#xca;" horiz-adv-x="618" d="M102 0l299 1413h414l-6 -33h-369l-137 -643h313l-6 -30h-313l-143 -674h368l-6 -33h-414zM444 1462l189 131h31l133 -131h-60l-98 99l-139 -99h-56z" />
<glyph unicode="&#xcb;" horiz-adv-x="618" d="M102 0l299 1413h414l-6 -33h-369l-137 -643h313l-6 -30h-313l-143 -674h368l-6 -33h-414zM541 1483l20 92h41l-20 -92h-41zM664 1483l20 92h43l-20 -92h-43z" />
<glyph unicode="&#xcc;" horiz-adv-x="243" d="M100 0l299 1415h43l-299 -1415h-43zM352 1593h56l129 -139h-54z" />
<glyph unicode="&#xcd;" horiz-adv-x="243" d="M100 0l299 1415h43l-299 -1415h-43zM322 1454l190 139h55l-194 -139h-51z" />
<glyph unicode="&#xce;" horiz-adv-x="243" d="M100 0l299 1415h43l-299 -1415h-43zM254 1462l188 131h33l129 -131h-55l-98 97l-140 -97h-57z" />
<glyph unicode="&#xcf;" horiz-adv-x="243" d="M100 0l299 1415h43l-299 -1415h-43zM350 1483l21 92h45l-21 -92h-45zM477 1483l21 92h43l-21 -92h-43z" />
<glyph unicode="&#xd0;" horiz-adv-x="622" d="M102 0l299 1413h199q92 0 145.5 -49t38.5 -117l-229 -1081q-8 -35 -31.5 -64.5t-57.5 -52t-77 -36t-88 -13.5h-199zM154 33h153q76 0 133.5 40t69.5 93l229 1081q10 53 -29.5 93t-115.5 40h-154l-137 -643h154l-6 -30h-154z" />
<glyph unicode="&#xd1;" horiz-adv-x="677" d="M121 0l299 1413h43l84 -1251l266 1251h41l-299 -1413h-39l-86 1249l-264 -1249h-45zM416 1518q35 23 75.5 36t75.5 13q66 0 109 -31q37 -25 84 -25q57 0 117 41l20 -16l-4 -14q-29 -20 -65.5 -30.5t-73.5 -10.5q-63 0 -111 28q-16 10 -39.5 16.5t-44.5 6.5 q-25 0 -54.5 -9.5t-58.5 -27.5z" />
<glyph unicode="&#xd2;" d="M137 166l230 1081q8 35 31.5 64.5t57 52t75.5 36t90 13.5q45 0 81.5 -13.5t61 -36t36 -52t3.5 -64.5l-230 -1081q-16 -72 -87.5 -119t-163.5 -47t-146.5 47t-38.5 119zM182 166q-12 -55 30 -94t116 -39q72 0 131 39t71 94l230 1081q12 55 -31 94t-115 39 q-74 0 -132 -38.5t-70 -94.5zM551 1593h57l127 -139h-51z" />
<glyph unicode="&#xd3;" d="M137 166l230 1081q8 35 31.5 64.5t57 52t75.5 36t90 13.5q45 0 81.5 -13.5t61 -36t36 -52t3.5 -64.5l-230 -1081q-16 -72 -87.5 -119t-163.5 -47t-146.5 47t-38.5 119zM182 166q-12 -55 30 -94t116 -39q72 0 131 39t71 94l230 1081q12 55 -31 94t-115 39 q-74 0 -132 -38.5t-70 -94.5zM520 1454l191 139h55l-191 -139h-55z" />
<glyph unicode="&#xd4;" d="M137 166l230 1081q8 35 31.5 64.5t57 52t75.5 36t90 13.5q45 0 81.5 -13.5t61 -36t36 -52t3.5 -64.5l-230 -1081q-16 -72 -87.5 -119t-163.5 -47t-146.5 47t-38.5 119zM182 166q-12 -55 30 -94t116 -39q72 0 131 39t71 94l230 1081q12 55 -31 94t-115 39 q-74 0 -132 -38.5t-70 -94.5zM457 1462l188 131h31l131 -131h-55l-101 97l-139 -97h-55z" />
<glyph unicode="&#xd5;" horiz-adv-x="677" d="M154 166l229 1081q16 70 90 118t166 48q45 0 82 -13.5t62.5 -36t36.5 -52t3 -64.5l-229 -1081q-8 -35 -31.5 -65.5t-58.5 -53t-77 -35t-87 -12.5t-83 12.5t-63.5 35t-37 53t-2.5 65.5zM199 166q-12 -55 29.5 -94t117.5 -39q35 0 69 10t61.5 28.5t47 42t25.5 52.5 l229 1081q12 55 -30.5 94t-114.5 39q-76 0 -134.5 -38.5t-70.5 -94.5zM416 1518q35 23 75.5 36t75.5 13q66 0 109 -31q37 -25 84 -25q57 0 117 41l20 -16l-4 -14q-29 -20 -65.5 -30.5t-73.5 -10.5q-63 0 -111 28q-16 10 -39.5 16.5t-44.5 6.5q-25 0 -54.5 -9.5t-58.5 -27.5z " />
<glyph unicode="&#xd6;" d="M137 166l230 1081q8 35 31.5 64.5t57 52t75.5 36t90 13.5q45 0 81.5 -13.5t61 -36t36 -52t3.5 -64.5l-230 -1081q-16 -72 -87.5 -119t-163.5 -47t-146.5 47t-38.5 119zM182 166q-12 -55 30 -94t116 -39q72 0 131 39t71 94l230 1081q12 55 -31 94t-115 39 q-74 0 -132 -38.5t-70 -94.5zM551 1483l20 92h41l-20 -92h-41zM676 1483l20 92h41l-20 -92h-41z" />
<glyph unicode="&#xd7;" horiz-adv-x="638" d="M123 143l276 355q-31 86 -62.5 175t-64.5 175h50l108 -309q61 78 123.5 156.5t122.5 152.5h47l-277 -350q33 -86 65 -177.5t62 -177.5h-47l-114 310q-59 -78 -120 -156t-120 -154h-49z" />
<glyph unicode="&#xd8;" horiz-adv-x="696" d="M92 -33l72 139q-4 12 -4 28t4 32l229 1081q16 70 89 118t165 48q59 0 98 -17.5t62 -49.5q14 23 28.5 50t26.5 50h43l-74 -141q6 -25 0 -58l-229 -1081q-8 -35 -31.5 -65.5t-58.5 -53t-77 -35t-87 -12.5q-53 0 -95 18.5t-65 49.5q-12 -25 -27.5 -51.5t-25.5 -49.5h-43z M211 111q12 -35 50 -56.5t93 -21.5q72 0 131.5 39t71.5 94l219 1038q-141 -274 -283.5 -546.5t-281.5 -546.5zM215 205q141 274 283.5 545.5t287.5 547.5q-16 35 -56 58.5t-89 23.5q-37 0 -70.5 -10t-61.5 -28.5t-47.5 -43t-25.5 -51.5z" />
<glyph unicode="&#xd9;" d="M137 166l264 1241h45l-264 -1241q-12 -55 30 -94t116 -39q72 0 131 39t71 94l265 1241h43l-265 -1241q-16 -72 -87.5 -119t-163.5 -47t-146.5 47t-38.5 119zM551 1593h57l127 -139h-51z" />
<glyph unicode="&#xda;" d="M137 166l264 1241h45l-264 -1241q-12 -55 30 -94t116 -39q72 0 131 39t71 94l265 1241h43l-265 -1241q-16 -72 -87.5 -119t-163.5 -47t-146.5 47t-38.5 119zM520 1454l191 139h55l-191 -139h-55z" />
<glyph unicode="&#xdb;" d="M137 166l264 1241h45l-264 -1241q-12 -55 30 -94t116 -39q72 0 131 39t71 94l265 1241h43l-265 -1241q-16 -72 -87.5 -119t-163.5 -47t-146.5 47t-38.5 119zM457 1462l188 131h31l131 -131h-55l-101 97l-139 -97h-55z" />
<glyph unicode="&#xdc;" d="M137 166l264 1241h45l-264 -1241q-12 -55 30 -94t116 -39q72 0 131 39t71 94l265 1241h43l-265 -1241q-16 -72 -87.5 -119t-163.5 -47t-146.5 47t-38.5 119zM551 1483l20 92h41l-20 -92h-41zM676 1483l20 92h41l-20 -92h-41z" />
<glyph unicode="&#xdd;" horiz-adv-x="524" d="M244 0l139 662q-10 182 -19.5 376.5t-19.5 374.5h43l35 -661q78 166 160 331.5t159 329.5h41l-356 -751l-139 -662h-43zM465 1454l188 139h58l-193 -139h-53z" />
<glyph unicode="&#xde;" horiz-adv-x="645" d="M102 0l299 1415h45l-71 -344h174q45 0 83 -13.5t62.5 -36t35.5 -53t3 -63.5l-61 -295q-16 -72 -90 -119t-166 -47h-174l-95 -444h-45zM248 475h174q37 0 70.5 10.5t61.5 28.5t46 43t25 53l61 295q12 53 -31 93t-114 40h-174z" />
<glyph unicode="&#xdf;" d="M102 0l265 1247q8 35 31.5 64.5t57 52t75.5 36t90 13.5q45 0 81.5 -13.5t61 -36t36 -52t3.5 -64.5l-25 -114q-8 -41 -37.5 -73t-74.5 -54q-23 -10 -40.5 -17.5t-25.5 -11.5q-55 -18 -59 -23q-86 -43 -103 -110q-12 -61 43 -101q10 -6 24.5 -13t37.5 -17l12 -6 q8 -4 20.5 -10.5t22.5 -10.5q35 -23 51.5 -55.5t5.5 -73.5l-82 -391q-16 -72 -87.5 -119t-163.5 -47h-84l6 33h84q72 0 131 39t71 94l82 391q8 31 -6 57.5t-41 44.5q-4 4 -10 7.5t-16 7.5h4q-6 0 -15 4l-8 4h2q-53 23 -64.5 28t-15.5 9h2q-61 47 -47 127q18 78 101 125h-2 q4 2 7 4t12 6t27.5 10t49.5 17l18 6q6 2 11.5 5t13.5 7q41 23 66.5 47.5t33.5 59.5l25 114q12 55 -31 94t-115 39q-74 0 -132 -38.5t-70 -94.5l-265 -1247h-45z" />
<glyph unicode="&#xe0;" d="M137 166l64 297q6 33 29.5 63.5t58.5 53t77 36t89 13.5q53 0 93 -18.5t66 -49.5l68 324q12 53 -31 93t-114 40q-74 0 -132.5 -40t-70.5 -93l-23 -109h-45l23 109q8 33 31.5 63.5t58.5 53t77 36t89 13.5q45 0 82 -13.5t61.5 -36t34.5 -53t2 -63.5l-186 -885h-43l12 66 q-39 -31 -86 -48.5t-100 -17.5q-92 0 -146.5 47t-38.5 119zM182 166q-12 -55 30 -94t116 -39q72 0 131 39t71 94l64 297q10 53 -33 93t-115 40q-37 0 -70.5 -10.5t-61 -28.5t-45 -43t-23.5 -51zM479 1253h56l127 -141h-50z" />
<glyph unicode="&#xe1;" d="M137 166l64 297q6 33 29.5 63.5t58.5 53t77 36t89 13.5q53 0 93 -18.5t66 -49.5l68 324q12 53 -31 93t-114 40q-74 0 -132.5 -40t-70.5 -93l-23 -109h-45l23 109q8 33 31.5 63.5t58.5 53t77 36t89 13.5q45 0 82 -13.5t61.5 -36t34.5 -53t2 -63.5l-186 -885h-43l12 66 q-39 -31 -86 -48.5t-100 -17.5q-92 0 -146.5 47t-38.5 119zM182 166q-12 -55 30 -94t116 -39q72 0 131 39t71 94l64 297q10 53 -33 93t-115 40q-37 0 -70.5 -10.5t-61 -28.5t-45 -43t-23.5 -51zM451 1112l188 141h55l-192 -141h-51z" />
<glyph unicode="&#xe2;" d="M137 166l64 297q6 33 29.5 63.5t58.5 53t77 36t89 13.5q53 0 93 -18.5t66 -49.5l68 324q12 53 -31 93t-114 40q-74 0 -132.5 -40t-70.5 -93l-23 -109h-45l23 109q8 33 31.5 63.5t58.5 53t77 36t89 13.5q45 0 82 -13.5t61.5 -36t34.5 -53t2 -63.5l-186 -885h-43l12 66 q-39 -31 -86 -48.5t-100 -17.5q-92 0 -146.5 47t-38.5 119zM182 166q-12 -55 30 -94t116 -39q72 0 131 39t71 94l64 297q10 53 -33 93t-115 40q-37 0 -70.5 -10.5t-61 -28.5t-45 -43t-23.5 -51zM385 1120l186 131h31l133 -131h-55l-100 99l-140 -99h-55z" />
<glyph unicode="&#xe3;" d="M135 166l64 297q6 33 29.5 63.5t58.5 53t77 36t87 13.5q57 0 97 -18.5t66 -49.5l68 324q12 53 -33 93t-117 40q-37 0 -70.5 -10.5t-61 -28.5t-46 -43t-24.5 -51l-23 -109h-43l23 109q8 35 31.5 64.5t58.5 52t77 36t87 13.5q92 0 144 -49.5t38 -116.5l-186 -885h-41l12 66 q-39 -31 -86 -48.5t-105 -17.5q-45 0 -81.5 12.5t-61 35t-36 53t-3.5 65.5zM178 166q-12 -55 31 -94t115 -39q37 0 70.5 10t62 28.5t48 42t25.5 52.5l64 297q10 53 -35 93t-117 40q-37 0 -70.5 -10.5t-60 -28.5t-45 -43t-24.5 -51zM322 1180q35 23 75.5 35t77.5 12 q61 0 111 -31q16 -10 38.5 -16t41.5 -6q25 0 56.5 9t61.5 29l23 -14l-4 -14q-68 -45 -144 -45q-63 0 -108 30q-16 12 -39 18.5t-45 6.5q-51 0 -115 -41z" />
<glyph unicode="&#xe4;" d="M137 166l64 297q6 33 29.5 63.5t58.5 53t77 36t89 13.5q53 0 93 -18.5t66 -49.5l68 324q12 53 -31 93t-114 40q-74 0 -132.5 -40t-70.5 -93l-23 -109h-45l23 109q8 33 31.5 63.5t58.5 53t77 36t89 13.5q45 0 82 -13.5t61.5 -36t34.5 -53t2 -63.5l-186 -885h-43l12 66 q-39 -31 -86 -48.5t-100 -17.5q-92 0 -146.5 47t-38.5 119zM182 166q-12 -55 30 -94t116 -39q72 0 131 39t71 94l64 297q10 53 -33 93t-115 40q-37 0 -70.5 -10.5t-61 -28.5t-45 -43t-23.5 -51zM479 1145l21 90h41l-21 -90h-41zM604 1145l21 90h41l-21 -90h-41z" />
<glyph unicode="&#xe5;" d="M137 166l64 297q6 33 29.5 63.5t58.5 53t77 36t89 13.5q53 0 93 -18.5t66 -49.5l68 324q12 53 -31 93t-114 40q-74 0 -132.5 -40t-70.5 -93l-23 -109h-45l23 109q8 33 31.5 63.5t58.5 53t77 36t89 13.5q45 0 82 -13.5t61.5 -36t34.5 -53t2 -63.5l-186 -885h-43l12 66 q-39 -31 -86 -48.5t-100 -17.5q-92 0 -146.5 47t-38.5 119zM182 166q-12 -55 30 -94t116 -39q72 0 131 39t71 94l64 297q10 53 -33 93t-115 40q-37 0 -70.5 -10.5t-61 -28.5t-45 -43t-23.5 -51zM426 1182q10 47 58 78.5t112 31.5q61 0 96 -31.5t25 -78.5t-58.5 -79 t-109.5 -32q-63 0 -98 32t-25 79zM471 1182q-6 -33 18.5 -55.5t65.5 -22.5q43 0 76 22.5t39 55.5q8 33 -15.5 54t-66.5 21q-41 0 -75 -21.5t-42 -53.5z" />
<glyph unicode="&#xe6;" horiz-adv-x="1042" d="M139 166l64 297q6 33 29.5 63.5t58.5 53t78 36t88 13.5q53 0 94 -18.5t65 -47.5l70 332q6 51 -35 87t-112 36q-35 0 -69 -10.5t-61.5 -28.5t-47 -43t-25.5 -51l-23 -109h-45l23 109q8 33 31.5 63.5t58.5 53t78 36t88 13.5q66 0 112 -27t64 -68q35 41 94.5 68t124.5 27 q45 0 82 -13.5t61.5 -36t36 -53t2.5 -63.5l-67 -324h-395l-87 -405q-6 -53 36 -88t114 -35q35 0 68.5 10t61.5 28.5t47.5 42t25.5 52.5l22 108h45l-22 -108q-8 -35 -31.5 -65.5t-58.5 -53t-77 -35t-87 -12.5q-66 0 -114 25.5t-66 66.5q-35 -41 -92.5 -66.5t-122.5 -25.5 q-90 0 -145.5 47t-39.5 119zM184 166q-12 -55 31 -94t115 -39t128 34.5t72 88.5l5 8l-3 2l66 309q10 49 -36 85t-113 36q-35 0 -69 -10.5t-61.5 -28.5t-46 -43t-24.5 -51zM668 592h350l61 293q12 53 -30.5 93t-114.5 40t-129 -36t-74 -87z" />
<glyph unicode="&#xe7;" d="M137 166l152 719q8 33 31.5 63.5t58.5 53t77 36t89 13.5q45 0 82 -13.5t61.5 -36t34.5 -53t2 -63.5l-23 -109h-43l23 109q12 53 -31 93t-114 40q-74 0 -132.5 -40t-70.5 -93l-152 -719q-12 -55 30 -94t116 -39q72 0 131 39t71 94l23 108h43l-23 -108q-12 -59 -65 -103.5 t-127 -56.5q20 -16 29.5 -37.5t5.5 -44.5q-10 -47 -66.5 -78.5t-128.5 -31.5l6 30q53 0 97.5 23.5t52.5 56.5q4 25 -16.5 46.5t-51.5 29.5q-43 2 -77.5 15.5t-58 36t-34 51t-2.5 63.5z" />
<glyph unicode="&#xe8;" d="M137 166l152 719q8 33 31.5 63.5t58.5 53t77 36t89 13.5q45 0 82 -13.5t61.5 -36t34.5 -53t2 -63.5l-68 -324h-391l-84 -395q-12 -55 30 -94t116 -39q72 0 131 39t71 94l23 108h43l-23 -108q-16 -72 -87.5 -119t-163.5 -47t-146.5 47t-38.5 119zM272 592h349l61 293 q12 53 -31 93t-114 40q-74 0 -132.5 -40t-70.5 -93zM479 1253h56l127 -141h-50z" />
<glyph unicode="&#xe9;" d="M137 166l152 719q8 33 31.5 63.5t58.5 53t77 36t89 13.5q45 0 82 -13.5t61.5 -36t34.5 -53t2 -63.5l-68 -324h-391l-84 -395q-12 -55 30 -94t116 -39q72 0 131 39t71 94l23 108h43l-23 -108q-16 -72 -87.5 -119t-163.5 -47t-146.5 47t-38.5 119zM272 592h349l61 293 q12 53 -31 93t-114 40q-74 0 -132.5 -40t-70.5 -93zM451 1112l188 141h55l-192 -141h-51z" />
<glyph unicode="&#xea;" d="M137 166l152 719q8 33 31.5 63.5t58.5 53t77 36t89 13.5q45 0 82 -13.5t61.5 -36t34.5 -53t2 -63.5l-68 -324h-391l-84 -395q-12 -55 30 -94t116 -39q72 0 131 39t71 94l23 108h43l-23 -108q-16 -72 -87.5 -119t-163.5 -47t-146.5 47t-38.5 119zM272 592h349l61 293 q12 53 -31 93t-114 40q-74 0 -132.5 -40t-70.5 -93zM385 1120l186 131h31l133 -131h-55l-100 99l-140 -99h-55z" />
<glyph unicode="&#xeb;" d="M137 166l152 719q8 33 31.5 63.5t58.5 53t77 36t89 13.5q45 0 82 -13.5t61.5 -36t34.5 -53t2 -63.5l-68 -324h-391l-84 -395q-12 -55 30 -94t116 -39q72 0 131 39t71 94l23 108h43l-23 -108q-16 -72 -87.5 -119t-163.5 -47t-146.5 47t-38.5 119zM272 592h349l61 293 q12 53 -31 93t-114 40q-74 0 -132.5 -40t-70.5 -93zM479 1145l21 90h41l-21 -90h-41zM604 1145l21 90h41l-21 -90h-41z" />
<glyph unicode="&#xec;" horiz-adv-x="243" d="M100 0l224 1051h43l-224 -1051h-43zM281 1253h55l127 -141h-51z" />
<glyph unicode="&#xed;" horiz-adv-x="243" d="M100 0l224 1051h43l-224 -1051h-43zM252 1112l188 141h56l-195 -141h-49z" />
<glyph unicode="&#xee;" horiz-adv-x="243" d="M100 0l224 1051h43l-224 -1051h-43zM182 1120l187 131h32l131 -131h-55l-98 99l-139 -99h-58z" />
<glyph unicode="&#xef;" horiz-adv-x="243" d="M100 0l224 1051h41l-224 -1051h-41zM281 1145l20 90h41l-20 -90h-41zM401 1145l21 90h45l-21 -90h-45z" />
<glyph unicode="&#xf0;" d="M137 166l135 643q8 35 32 65.5t58.5 53t76.5 35t89 12.5q72 0 115 -27q-12 53 -26.5 105.5t-28.5 105.5h-223l6 33h211q-16 53 -31.5 111.5t-28.5 109.5h45l62 -221h145l-6 -33h-133q18 -72 37.5 -146.5t38.5 -146.5q8 -23 -2 -57l-136 -643q-16 -72 -87.5 -119 t-163.5 -47t-146.5 47t-38.5 119zM182 166q-12 -55 30 -94t116 -39q72 0 131 39t71 94l136 643q12 55 -31 94t-115 39q-74 0 -132 -39t-71 -94z" />
<glyph unicode="&#xf1;" horiz-adv-x="677" d="M119 0l223 1051h45l-14 -66q37 29 87 47.5t103 18.5q45 0 82 -13.5t61.5 -36t36 -53t2.5 -63.5l-186 -885h-45l186 885q12 53 -30.5 93t-114.5 40q-76 0 -134.5 -40t-70.5 -93l-186 -885h-45zM344 1180q72 47 152 47q61 0 108 -31q16 -10 40 -16t44 -6q61 0 115 38 l22 -14l-4 -14q-63 -45 -143 -45q-63 0 -107 30q-18 12 -40.5 18.5t-43.5 6.5q-51 0 -114 -41z" />
<glyph unicode="&#xf2;" d="M137 166l152 719q8 33 31.5 63.5t58.5 53t77 36t89 13.5q45 0 82 -13.5t61.5 -36t34.5 -53t2 -63.5l-152 -719q-16 -72 -87.5 -119t-163.5 -47t-146.5 47t-38.5 119zM182 166q-12 -55 30 -94t116 -39q72 0 131 39t71 94l152 719q12 53 -31 93t-114 40q-74 0 -132.5 -40 t-70.5 -93zM479 1253h56l127 -141h-50z" />
<glyph unicode="&#xf3;" d="M137 166l152 719q8 33 31.5 63.5t58.5 53t77 36t89 13.5q45 0 82 -13.5t61.5 -36t34.5 -53t2 -63.5l-152 -719q-16 -72 -87.5 -119t-163.5 -47t-146.5 47t-38.5 119zM182 166q-12 -55 30 -94t116 -39q72 0 131 39t71 94l152 719q12 53 -31 93t-114 40q-74 0 -132.5 -40 t-70.5 -93zM451 1112l188 141h55l-192 -141h-51z" />
<glyph unicode="&#xf4;" d="M137 166l152 719q8 33 31.5 63.5t58.5 53t77 36t89 13.5q45 0 82 -13.5t61.5 -36t34.5 -53t2 -63.5l-152 -719q-16 -72 -87.5 -119t-163.5 -47t-146.5 47t-38.5 119zM182 166q-12 -55 30 -94t116 -39q72 0 131 39t71 94l152 719q12 53 -31 93t-114 40q-74 0 -132.5 -40 t-70.5 -93zM385 1120l186 131h31l133 -131h-55l-100 99l-140 -99h-55z" />
<glyph unicode="&#xf5;" horiz-adv-x="677" d="M154 166l151 719q8 33 31.5 63.5t59.5 53t79 36t88 13.5t82 -13.5t61.5 -36t36 -53t2.5 -63.5l-151 -719q-8 -35 -31.5 -65.5t-58.5 -53t-77 -35t-87 -12.5t-83 12.5t-63.5 35t-37 53t-2.5 65.5zM199 166q-12 -55 29.5 -94t117.5 -39q35 0 69 10t61.5 28.5t47 42 t25.5 52.5l151 719q12 53 -30.5 93t-114.5 40q-76 0 -134.5 -40t-70.5 -93zM344 1180q72 47 152 47q61 0 108 -31q16 -10 40 -16t44 -6q61 0 115 38l22 -14l-4 -14q-63 -45 -143 -45q-63 0 -107 30q-18 12 -40.5 18.5t-43.5 6.5q-51 0 -114 -41z" />
<glyph unicode="&#xf6;" d="M137 166l152 719q8 33 31.5 63.5t58.5 53t77 36t89 13.5q45 0 82 -13.5t61.5 -36t34.5 -53t2 -63.5l-152 -719q-16 -72 -87.5 -119t-163.5 -47t-146.5 47t-38.5 119zM182 166q-12 -55 30 -94t116 -39q72 0 131 39t71 94l152 719q12 53 -31 93t-114 40q-74 0 -132.5 -40 t-70.5 -93zM479 1145l21 90h41l-21 -90h-41zM604 1145l21 90h41l-21 -90h-41z" />
<glyph unicode="&#xf7;" horiz-adv-x="618" d="M203 477l6 31h414l-7 -31h-413zM322 186l24 119h43l-24 -119h-43zM428 686l25 119h43l-25 -119h-43z" />
<glyph unicode="&#xf8;" d="M92 -33l60 105q-27 39 -15 94l152 719q8 33 31.5 63.5t58.5 53t77 36t89 13.5q43 0 78.5 -12.5t60.5 -30.5q10 20 22.5 42.5t22.5 39.5h41l-65 -111q18 -23 22 -44.5t-2 -49.5l-152 -719q-16 -72 -87.5 -119t-163.5 -47q-45 0 -80 12.5t-60 30.5q-10 -18 -23.5 -38.5 t-19.5 -37.5h-47zM180 119q119 215 240 426t242 426q-20 20 -53.5 33.5t-71.5 13.5q-74 0 -132.5 -40t-70.5 -93l-152 -719q-8 -29 -2 -47zM201 78q23 -20 54.5 -32.5t72.5 -12.5q35 0 68.5 10t61 28.5t47 42t25.5 52.5l152 719q4 16 5 26.5t-7 22.5q-117 -215 -239 -429 t-240 -427z" />
<glyph unicode="&#xf9;" d="M137 166l189 885h45l-189 -885q-12 -55 30 -94t116 -39q72 0 131 39t71 94l189 885h43l-189 -885q-16 -72 -87.5 -119t-163.5 -47t-146.5 47t-38.5 119zM479 1253h56l127 -141h-50z" />
<glyph unicode="&#xfa;" d="M137 166l189 885h45l-189 -885q-12 -55 30 -94t116 -39q72 0 131 39t71 94l189 885h43l-189 -885q-16 -72 -87.5 -119t-163.5 -47t-146.5 47t-38.5 119zM451 1112l188 141h55l-192 -141h-51z" />
<glyph unicode="&#xfb;" d="M137 166l189 885h45l-189 -885q-12 -55 30 -94t116 -39q72 0 131 39t71 94l189 885h43l-189 -885q-16 -72 -87.5 -119t-163.5 -47t-146.5 47t-38.5 119zM385 1120l186 131h31l133 -131h-55l-100 99l-140 -99h-55z" />
<glyph unicode="&#xfc;" d="M137 166l189 885h45l-189 -885q-12 -55 30 -94t116 -39q72 0 131 39t71 94l189 885h43l-189 -885q-16 -72 -87.5 -119t-163.5 -47t-146.5 47t-38.5 119zM479 1145l21 90h41l-21 -90h-41zM604 1145l21 90h41l-21 -90h-41z" />
<glyph unicode="&#xfd;" d="M61 -188h45q-12 -59 29 -101.5t115 -42.5q37 0 70.5 10.5t61.5 29t46 43t25 50.5l55 265q-39 -29 -87 -47.5t-99 -18.5q-92 0 -146.5 47t-38.5 119l189 885h45l-189 -885q-12 -55 30 -94t116 -39q72 0 131 39t71 94l189 885h43l-266 -1250q-6 -35 -30 -64.5t-57.5 -51 t-76.5 -34.5t-88 -13q-92 0 -145.5 51t-37.5 123zM465 1112l197 141h55l-197 -141h-55z" />
<glyph unicode="&#xfe;" d="M25 -362l372 1759h45l-86 -414q37 29 86.5 48.5t102.5 19.5q45 0 82 -13.5t61.5 -36t34.5 -53t2 -63.5l-152 -719q-16 -72 -87.5 -119t-163.5 -47q-53 0 -95.5 18.5t-66.5 47.5l-90 -428h-45zM182 166q-12 -55 30 -94t116 -39q72 0 131 39t71 94l152 719q12 53 -31 93 t-114 40q-74 0 -132.5 -40t-70.5 -93z" />
<glyph unicode="&#xff;" d="M61 -188h45q-12 -59 29 -101.5t115 -42.5q37 0 70.5 10.5t61.5 29t46 43t25 50.5l55 265q-39 -29 -87 -47.5t-99 -18.5q-92 0 -146.5 47t-38.5 119l189 885h45l-189 -885q-12 -55 30 -94t116 -39q72 0 131 39t71 94l189 885h43l-266 -1250q-6 -35 -30 -64.5t-57.5 -51 t-76.5 -34.5t-88 -13q-92 0 -145.5 51t-37.5 123zM500 1145l20 90h43l-20 -90h-43zM623 1145l20 90h43l-20 -90h-43z" />
<glyph unicode="&#x152;" horiz-adv-x="1003" d="M139 166l230 1081q16 70 88.5 118t165.5 48h575l-6 -33h-375l-137 -643h319l-6 -30h-319l-144 -674h375l-6 -33h-575q-90 0 -145.5 47t-39.5 119zM184 166q-12 -55 31 -94t115 -39h159l287 1347h-160q-72 0 -131 -38.5t-71 -94.5z" />
<glyph unicode="&#x153;" horiz-adv-x="1042" d="M139 166l152 719q8 33 31.5 63.5t58.5 53t78 36t88 13.5q66 0 110.5 -28t65.5 -69q35 43 94.5 70t124.5 27q45 0 82 -13.5t61.5 -36t36 -53t2.5 -63.5l-67 -324h-395l-84 -395q-12 -55 29.5 -94t117.5 -39q35 0 68.5 10t61.5 28.5t47.5 42t25.5 52.5l22 108h45l-22 -108 q-8 -35 -31.5 -65.5t-58.5 -53t-77 -35t-87 -12.5q-66 0 -114 25.5t-66 66.5q-35 -41 -92.5 -66.5t-122.5 -25.5q-90 0 -145.5 47t-39.5 119zM184 166q-12 -55 31 -94t115 -39t131 39t71 94l152 719q12 53 -31 93t-114 40q-35 0 -69 -10.5t-61.5 -28.5t-47 -43t-25.5 -51z M668 592h350l61 293q12 53 -30.5 93t-114.5 40q-76 0 -134.5 -40t-70.5 -93z" />
<glyph unicode="&#x178;" horiz-adv-x="514" d="M236 0l139 662q-10 182 -19.5 376.5t-17.5 374.5h41l37 -665q80 166 157.5 332.5t159.5 332.5h41l-356 -751l-139 -662h-43zM487 1483l21 92h41l-21 -92h-41zM608 1483l21 92h45l-21 -92h-45z" />
<glyph unicode="&#x2c6;" horiz-adv-x="522" d="M354 1270l189 133h30l132 -133h-56l-100 98l-139 -98h-56z" />
<glyph unicode="&#x2dc;" horiz-adv-x="677" d="M383 1362q72 47 152 47q63 0 112 -31q33 -20 80 -20q27 0 56.5 8t58.5 29l22 -15l-4 -14q-29 -20 -66.5 -31.5t-72.5 -11.5q-29 0 -58.5 7t-52.5 24q-35 23 -84 22q-49 0 -114 -39z" />
<glyph unicode="&#x2000;" horiz-adv-x="819" />
<glyph unicode="&#x2001;" horiz-adv-x="1638" />
<glyph unicode="&#x2002;" horiz-adv-x="819" />
<glyph unicode="&#x2003;" horiz-adv-x="1638" />
<glyph unicode="&#x2004;" horiz-adv-x="546" />
<glyph unicode="&#x2005;" horiz-adv-x="409" />
<glyph unicode="&#x2006;" horiz-adv-x="273" />
<glyph unicode="&#x2007;" horiz-adv-x="273" />
<glyph unicode="&#x2008;" horiz-adv-x="204" />
<glyph unicode="&#x2009;" horiz-adv-x="327" />
<glyph unicode="&#x200a;" horiz-adv-x="91" />
<glyph unicode="&#x2010;" horiz-adv-x="618" d="M203 477l6 31h414l-7 -31h-413z" />
<glyph unicode="&#x2011;" horiz-adv-x="618" d="M203 477l6 31h414l-7 -31h-413z" />
<glyph unicode="&#x2012;" horiz-adv-x="618" d="M203 477l6 31h414l-7 -31h-413z" />
<glyph unicode="&#x2013;" horiz-adv-x="727" d="M203 477l6 31h522l-6 -31h-522z" />
<glyph unicode="&#x2014;" horiz-adv-x="886" d="M205 477l6 31h676l-6 -31h-676z" />
<glyph unicode="&#x2018;" horiz-adv-x="303" d="M360 1227l25 114l88 117h49l-96 -123l-23 -106z" />
<glyph unicode="&#x2019;" horiz-adv-x="303" d="M354 1229l92 125l23 104h45l-25 -112l-88 -117h-47z" />
<glyph unicode="&#x201a;" horiz-adv-x="303" d="M68 -111l94 125l22 105h45l-24 -113l-88 -117h-49z" />
<glyph unicode="&#x201c;" horiz-adv-x="456" d="M362 1227l25 114l86 117h49l-96 -123l-23 -108h-41zM512 1227l25 114l88 117h47l-94 -123l-23 -106z" />
<glyph unicode="&#x201d;" horiz-adv-x="456" d="M356 1229l95 125l22 104h41l-25 -112l-88 -117h-45zM506 1229l94 125l23 104h41l-25 -112l-86 -117h-47z" />
<glyph unicode="&#x201e;" horiz-adv-x="450" d="M70 -111l92 125l22 105h45l-24 -113l-88 -117h-47zM213 -111l96 125l23 105h41l-25 -113l-86 -117h-49z" />
<glyph unicode="&#x2022;" horiz-adv-x="286" d="M248 702l26 119h88l-26 -119h-88z" />
<glyph unicode="&#x2026;" horiz-adv-x="559" d="M102 0l25 119h45l-25 -119h-45zM260 0l25 119h43l-25 -119h-43zM412 0l24 119h45l-24 -119h-45z" />
<glyph unicode="&#x202f;" horiz-adv-x="327" />
<glyph unicode="&#x2039;" horiz-adv-x="419" d="M195 434l217 248l55 -2l-225 -246q29 -57 62.5 -121.5t60.5 -122.5h-50z" />
<glyph unicode="&#x203a;" horiz-adv-x="419" d="M133 190l229 244q-29 59 -61.5 123t-60.5 123l51 2l119 -248l-228 -244h-49z" />
<glyph unicode="&#x205f;" horiz-adv-x="409" />
<glyph unicode="&#x20ac;" d="M137 166l230 1081q8 35 31.5 64.5t57 52t75.5 36t90 13.5q45 0 81.5 -13.5t61 -36t36 -52t3.5 -64.5l-23 -108h-43l23 108q12 55 -31 94t-115 39q-74 0 -132 -38.5t-70 -94.5l-80 -375h334l-7 -32h-333l-45 -213h284l-8 -31h-285l-90 -430q-12 -55 30 -94t116 -39 q72 0 131 39t71 94l23 108h43l-23 -108q-16 -72 -87.5 -119t-163.5 -47t-146.5 47t-38.5 119z" />
<glyph unicode="&#x2122;" horiz-adv-x="1067" d="M397 1380l6 33h379l-6 -33h-166l-133 -622h-43l133 622h-170zM641 760l121 569h41l92 -504q80 127 155.5 253t153.5 251h39l-121 -569h-41l99 454q-72 -113 -140.5 -227.5t-136.5 -224.5h-39l-84 446l-96 -448h-43z" />
<glyph unicode="&#xe000;" horiz-adv-x="1054" d="M0 0v1055h1055v-1055h-1055z" />
</font>
</defs>
</svg>
